<svg xmlns="http://www.w3.org/2000/svg" data-name="Layer 1" viewBox="0 0 24 24"><path fill="#15aee5" d="M22.452,7.4a.749.749,0,0,0-.658-.122l-7,2A.75.75,0,0,0,14.25,10v4a.75.75,0,0,0,.544.721l7,2A.765.765,0,0,0,22,16.75a.749.749,0,0,0,.75-.75V8A.751.751,0,0,0,22.452,7.4Z"/><rect width="15.5" height="15.5" x="1.25" y="4.25" fill="#15aee5" rx="2.75"/><path fill="#fff" d="M9,14.75A.75.75,0,0,1,8.25,14V10a.75.75,0,0,1,1.5,0v4A.75.75,0,0,1,9,14.75Z"/><path fill="#fff" d="M11,12.75H7a.75.75,0,0,1,0-1.5h4a.75.75,0,0,1,0,1.5Z"/><path fill="#0e1519" d="M14,19.75H4A2.752,2.752,0,0,1,1.25,17V7A2.752,2.752,0,0,1,4,4.25H14A2.752,2.752,0,0,1,16.75,7V9.715a.75.75,0,0,1-1.5,0V7A1.252,1.252,0,0,0,14,5.75H4A1.252,1.252,0,0,0,2.75,7V17A1.252,1.252,0,0,0,4,18.25H14A1.252,1.252,0,0,0,15.25,17V14.285a.75.75,0,0,1,.956-.721l5.044,1.442V8.994l-3.044.869a.749.749,0,1,1-.412-1.441l4-1.143A.749.749,0,0,1,22.75,8v8a.749.749,0,0,1-.956.721L16.75,15.279V17A2.752,2.752,0,0,1,14,19.75Z"/></svg>