<svg xmlns="http://www.w3.org/2000/svg" fill-rule="evenodd" stroke-linejoin="round" stroke-miterlimit="2" clip-rule="evenodd" viewBox="0 0 512 513"><rect width="512" height="512" y=".5" fill="none"/><clipPath id="a"><rect width="512" height="512" y=".5"/></clipPath><g clip-path="url(#a)"><path d="M176.593,169.024l42.615,-131.155c5.179,-15.94 20.032,-26.732 36.792,-26.732c16.76,0 31.613,10.792 36.792,26.732l42.615,131.155l137.906,0c16.76,0 31.613,10.792 36.792,26.732c5.179,15.939 -0.494,33.401 -14.053,43.252l-111.568,81.058l42.615,131.156c5.179,15.94 -0.495,33.401 -14.053,43.252c-13.559,9.851 -31.919,9.851 -45.478,0l-111.568,-81.059l-111.568,81.059c-13.559,9.851 -31.919,9.851 -45.478,0c-13.558,-9.851 -19.232,-27.312 -14.053,-43.252l42.615,-131.156l-111.568,-81.058c-13.559,-9.851 -19.232,-27.313 -14.053,-43.252c5.179,-15.94 20.032,-26.732 36.792,-26.732l137.906,0Z"/></g></svg>