<svg xmlns="http://www.w3.org/2000/svg" width="32" height="32" viewBox="0 0 32 32"><g transform="translate(0 -1020.362)"><circle cx="16" cy="1036.362" r="16" fill="#ffcc0f" fill-rule="evenodd"/><path fill="#ffa720" style="line-height:normal;text-indent:0;text-align:start;text-decoration-line:none;text-decoration-style:solid;text-decoration-color:#000;text-transform:none;block-progression:tb;isolation:auto;mix-blend-mode:normal" d="M 16.886719 31.96875 A 16 16 0 0 0 17.130859 31.958984 A 16 16 0 0 0 18.71875 31.767578 A 16 16 0 0 0 20.279297 31.416016 A 16 16 0 0 0 21.796875 30.912109 A 16 16 0 0 0 23.257812 30.259766 A 16 16 0 0 0 24.644531 29.462891 A 16 16 0 0 0 25.945312 28.533203 A 16 16 0 0 0 27.146484 27.478516 A 16 16 0 0 0 28.238281 26.306641 A 16 16 0 0 0 29.205078 25.035156 A 16 16 0 0 0 30.041016 23.669922 A 16 16 0 0 0 30.736328 22.230469 A 16 16 0 0 0 31.285156 20.728516 A 16 16 0 0 0 31.681641 19.177734 A 16 16 0 0 0 31.919922 17.597656 A 16 16 0 0 0 31.957031 16.873047 L 23.533203 8.4492188 C 23.479723 8.3962186 23.405838 8.3632812 23.324219 8.3632812 L 18.796875 8.3632812 L 18.796875 8.9550781 L 18.205078 8.3632812 L 13.867188 8.3632812 L 13.867188 8.9550781 L 13.275391 8.3632812 L 8.6757812 8.3632812 C 8.4479812 8.3632812 8.3808594 8.5273031 8.3808594 8.6582031 L 8.3808594 13.257812 L 8.9707031 13.847656 L 8.3808594 13.847656 L 8.3808594 18.152344 L 8.96875 18.740234 L 8.3808594 18.740234 L 8.3808594 18.744141 L 8.3808594 23.341797 C 8.3811114 23.41978 8.414434 23.487999 8.4648438 23.541016 C 8.4666919 23.542966 8.4648958 23.546927 8.4667969 23.548828 L 16.886719 31.96875 z " color="#000" font-family="sans-serif" font-weight="400" transform="translate(0 1020.362)"/><path fill="#fff" style="line-height:normal;text-indent:0;text-align:start;text-decoration-line:none;text-decoration-style:solid;text-decoration-color:#000;text-transform:none;block-progression:tb;isolation:auto;mix-blend-mode:normal" d="m 8.67623,1028.7253 c -0.2278,0 -0.29555,0.1646 -0.29555,0.2955 l 0,4.5983 4.89502,0 0,-4.8938 -4.59947,0 z m 5.19055,0 0,4.8938 4.33856,0 0,-4.8938 -4.33856,0 z m 4.92965,0 0,4.8938 4.82343,0 0,-4.5983 c -10e-6,-0.1632 -0.13233,-0.2955 -0.29555,-0.2955 l -4.52788,0 z m -7.6727,1.4662 c 0.39013,0 0.56801,0.2483 0.56801,0.6384 l 0,1.2768 c 0,0.4256 -0.17729,0.6385 -0.56801,0.6385 -0.39071,0 -0.60264,-0.2129 -0.60264,-0.6385 l 0,-0.036 0.39022,0 0,0.071 c 0,0.1774 0.0703,0.2482 0.17663,0.2482 0.14187,0 0.21359,-0.07 0.21359,-0.3186 l 0,-0.426 c -0.0361,0.1419 -0.17767,0.2136 -0.35559,0.2136 -0.28312,0 -0.42485,-0.2134 -0.42485,-0.568 l 0,-0.4607 c 0,-0.3901 0.21253,-0.6384 0.60264,-0.6384 z m 9.85929,0.035 0.24821,0 0,2.4832 -0.39021,0 0,-1.8794 -0.28285,0 0,-0.2841 c 0.28314,0 0.35451,-0.1424 0.42485,-0.3197 z m -9.85929,0.3197 c -0.14186,0 -0.21242,0.071 -0.21242,0.2483 l 0,0.4606 c 0,0.1773 0.0706,0.2482 0.21242,0.2482 0.10641,0 0.1778,-0.071 0.1778,-0.2482 l 0,-0.4606 c 0,-0.1774 -0.0714,-0.2483 -0.1778,-0.2483 z m -2.74305,3.6644 0,4.3039 4.89502,0 0,-4.3039 -4.89502,0 z m 5.48611,0 0,4.3039 4.33855,0 0,-4.3039 -4.33855,0 z m 4.92964,0 0,4.3039 4.82343,0 0,-4.3039 -4.82343,0 z m -7.6727,0.9109 c 0.35466,0 0.56801,0.2125 0.56801,0.6026 0,0.6384 -0.4618,0.7454 -0.4618,1.2064 l 0,0.1409 -0.31863,0 c -0.036,-0.035 -0.0358,-0.1054 -0.0358,-0.1409 0,-0.5674 0.426,-0.6038 0.426,-1.2422 0,-0.1773 -0.0717,-0.2124 -0.21358,-0.2124 -0.1064,0 -0.17664,0.035 -0.17664,0.2124 l 0,0.284 -0.35442,0 0,-0.2482 c 0,-0.3901 0.17672,-0.6026 0.56685,-0.6026 z m 4.47016,0 1.02865,0 0,0.3544 -0.67537,0 -0.0359,0.568 c 0.0716,-0.1064 0.17793,-0.1778 0.31979,-0.1778 0.28255,0 0.46064,0.2122 0.46064,0.5668 l 0,0.5681 c 0,0.3901 -0.21251,0.6026 -0.60264,0.6026 -0.39013,0 -0.568,-0.2125 -0.568,-0.6026 l 0,-0.2125 0.35673,0 0,0.2125 c 0,0.1773 0.0706,0.2482 0.21243,0.2482 0.1058,0 0.21242,-0.071 0.21242,-0.2482 l 0,-0.5323 c 0,-0.1773 -0.10603,-0.2482 -0.21242,-0.2482 -0.14186,0 -0.21243,0.071 -0.21243,0.2482 l 0,0.072 -0.35558,0 0.0716,-1.4188 z m -4.71838,2.1277 0.39022,0 0,0.3544 -0.39022,0 0,-0.3544 z m -2.49483,1.8564 0,4.5983 c 4.8e-4,0.1485 0.11127,0.2735 0.2586,0.2921 0.0107,0 0.0214,0 0.0324,0 l 0.004,0 4.59946,0 0,-4.8939 -4.89501,0 z m 5.48611,0 0,4.8938 4.33855,0 0,-4.8938 -4.33855,0 z m 4.92964,0 0,4.8938 4.52788,0 c 0.16322,0 0.29554,-0.1323 0.29555,-0.2955 l 0,-4.5983 -4.82343,0 z m -7.6727,0.8739 c 0.39013,0 0.56801,0.2483 0.56801,0.6385 0,0.7802 -0.78043,1.0648 -0.78043,1.4904 l 0,0.035 0.74464,0 0,0.3556 -1.13486,0 0,-0.284 c 0,-0.7448 0.78044,-0.8519 0.78044,-1.5967 0,-0.2128 -0.0711,-0.2828 -0.21359,-0.2828 -0.10639,0 -0.17663,0.071 -0.17663,0.2482 l 0,0.2828 -0.39022,0 0,-0.2482 c 0,-0.3901 0.21253,-0.6384 0.60264,-0.6384 z m 9.75193,0 c 0.39071,0 0.6038,0.2483 0.6038,0.6385 0,0.6383 -0.46065,0.7453 -0.46065,1.2064 l 0,0.142 -0.35558,0 0,-0.1778 c 0,-0.532 0.42485,-0.5669 0.42485,-1.2053 0,-0.1773 -0.0706,-0.2482 -0.21242,-0.2482 -0.1064,0 -0.1778,0.071 -0.1778,0.2482 l 0,0.2829 -0.38906,0 0,-0.2482 c 0,-0.3902 0.21219,-0.6385 0.56686,-0.6385 z m -0.21128,2.1635 0.35443,0 0,0.3556 -0.35443,0 0,-0.3556 z" color="#000" font-family="sans-serif" font-weight="400" overflow="visible"/></g></svg>