<svg xmlns="http://www.w3.org/2000/svg" width="24" height="24" fill="none" viewBox="0 0 24 24"><path fill="#000" fill-rule="evenodd" d="M4.02109 3.35633C4.08453 3.14483 4.2792 3 4.5 3H19.5C19.7208 3 19.9155 3.14483 19.9789 3.35633L21.4789 8.35633C21.4929 8.40294 21.5 8.45134 21.5 8.5C21.5 10.433 19.933 12 18 12C16.7268 12 15.6124 11.3202 15 10.3038C14.3876 11.3202 13.2732 12 12 12C10.7268 12 9.61245 11.3202 9 10.3038C8.38755 11.3202 7.27316 12 6 12C4.067 12 2.5 10.433 2.5 8.5C2.5 8.45134 2.5071 8.40294 2.52109 8.35633L4.02109 3.35633ZM9.5 8.5C9.5 9.88071 10.6193 11 12 11C13.3807 11 14.5 9.88071 14.5 8.5C14.5 8.22386 14.7239 8 15 8C15.2761 8 15.5 8.22386 15.5 8.5C15.5 9.88071 16.6193 11 18 11C19.3572 11 20.4619 9.91843 20.499 8.57016L19.128 4H4.87202L3.50097 8.57017C3.53812 9.91843 4.64275 11 6 11C7.38071 11 8.5 9.88071 8.5 8.5C8.5 8.22386 8.72386 8 9 8C9.27614 8 9.5 8.22386 9.5 8.5Z" clip-rule="evenodd"/><path fill="#000" fill-rule="evenodd" d="M4.5 20V11H3.5V20.5C3.5 20.7761 3.72386 21 4 21H20C20.2761 21 20.5 20.7761 20.5 20.5V11H19.5V20H4.5Z" clip-rule="evenodd"/></svg>