<svg xmlns="http://www.w3.org/2000/svg" width="24" height="24" fill="none" viewBox="0 0 24 24"><path fill="#000" fill-rule="evenodd" d="M4.5 2.5C4.05839 2.5 3.66907 2.78967 3.54217 3.21265L2.04217 8.21265C2.01421 8.30587 2 8.40268 2 8.5C2 10.7091 3.79086 12.5 6 12.5C7.19469 12.5 8.26706 11.9762 9 11.1458C9.73295 11.9762 10.8053 12.5 12 12.5C13.1947 12.5 14.2671 11.9762 15 11.1458C15.7329 11.9762 16.8053 12.5 18 12.5C20.2091 12.5 22 10.7091 22 8.5C22 8.40268 21.9858 8.30587 21.9578 8.21265L20.4578 3.21265C20.3309 2.78967 19.9416 2.5 19.5 2.5H4.5Z" clip-rule="evenodd"/><path fill="#000" fill-rule="evenodd" d="M5 19.5V11H3V20.5C3 21.0523 3.44772 21.5 4 21.5H20C20.5523 21.5 21 21.0523 21 20.5V11H19V19.5H5Z" clip-rule="evenodd"/></svg>