<svg xmlns="http://www.w3.org/2000/svg" data-name="Layer 1" viewBox="0 0 512 512"><g data-name="&lt;Group&gt;"><path fill="#fedb41" d="M471.82,243.05l-30.93,19.12V243.05c0-101.95-82.94-184.9-184.89-184.9S71.11,141.1,71.11,243.05v19.12L40.18,243.05C40.18,124.05,137,27.23,256,27.23S471.82,124.05,471.82,243.05Z" data-name="&lt;Group&gt;"/><g data-name="&lt;Group&gt;"><g data-name="&lt;Group&gt;"><path fill="#f4b844" d="M79.11,327.58h-16V243.05c0-106.365,86.53-192.9,192.89-192.9s192.89,86.535,192.89,192.9v84.29h-16V243.05c0-97.543-79.352-176.9-176.89-176.9S79.11,145.507,79.11,243.05Z" data-name="&lt;Path&gt;"/></g><g data-name="&lt;Group&gt;"><path fill="#00acea" d="M242.88,268.57a8,8,0,0,1-8-8V211.43a8,8,0,0,1,16,0v49.14A8,8,0,0,1,242.88,268.57Z" data-name="&lt;Path&gt;"/></g><g data-name="&lt;Group&gt;"><path fill="#00acea" d="M216.91,294.54a8,8,0,0,1-8-8V185.46a8,8,0,0,1,16,0V286.54A8,8,0,0,1,216.91,294.54Z" data-name="&lt;Path&gt;"/></g><g data-name="&lt;Group&gt;"><path fill="#00acea" d="M190.66,318.83a8,8,0,0,1-8-8V161.17a8,8,0,0,1,16,0V310.83A8,8,0,0,1,190.66,318.83Z" data-name="&lt;Path&gt;"/></g><g data-name="&lt;Group&gt;"><path fill="#00acea" d="M164.7,294.54a8,8,0,0,1-8-8V185.46a8,8,0,1,1,16,0V286.54A8,8,0,0,1,164.7,294.54Z" data-name="&lt;Path&gt;"/></g><g data-name="&lt;Group&gt;"><path fill="#00acea" d="M138.45,270.25a8,8,0,0,1-8-8v-52.5a8,8,0,0,1,16,0v52.5A8,8,0,0,1,138.45,270.25Z" data-name="&lt;Path&gt;"/></g><g data-name="&lt;Group&gt;"><path fill="#00acea" d="M321.34,318.83a8,8,0,0,1-8-8V161.17a8,8,0,0,1,16,0V310.83A8,8,0,0,1,321.34,318.83Z" data-name="&lt;Path&gt;"/></g><g data-name="&lt;Group&gt;"><path fill="#00acea" d="M295.09,294.54a8,8,0,0,1-8-8V185.46a8,8,0,1,1,16,0V286.54A8,8,0,0,1,295.09,294.54Z" data-name="&lt;Path&gt;"/></g><g data-name="&lt;Group&gt;"><path fill="#00acea" d="M269.12,281.42a8,8,0,0,1-8-8V198.58a8,8,0,0,1,16,0v74.84A8,8,0,0,1,269.12,281.42Z" data-name="&lt;Path&gt;"/></g><g data-name="&lt;Group&gt;"><path fill="#00acea" d="M347.3,294.54a8,8,0,0,1-8-8V185.46a8,8,0,1,1,16,0V286.54A8,8,0,0,1,347.3,294.54Z" data-name="&lt;Path&gt;"/></g><g data-name="&lt;Group&gt;"><path fill="#00acea" d="M373.55,270.25a8,8,0,0,1-8-8v-52.5a8,8,0,1,1,16,0v52.5A8,8,0,0,1,373.55,270.25Z" data-name="&lt;Path&gt;"/></g></g></g><g data-name="&lt;Group&gt;"><path fill="#00acea" d="M462.98,353.39v79.96a33.925,33.925,0,0,1-33.7,33.93l-16.45.38V319.46h16.22A33.929,33.929,0,0,1,462.98,353.39Z" data-name="&lt;Path&gt;"/></g><g data-name="&lt;Group&gt;"><polygon fill="#00efd1" points="412.83 467.66 412.83 478.77 369.83 478.77 369.83 310.63 412.83 310.63 412.83 319.46 412.83 467.66" data-name="&lt;Path&gt;"/></g><g data-name="&lt;Group&gt;"><polygon fill="#00efd1" points="142.17 310.63 142.17 478.77 99.17 478.77 99.17 467.66 99.17 319.46 99.17 310.63 142.17 310.63" data-name="&lt;Path&gt;"/></g><g data-name="&lt;Group&gt;"><path fill="#00acea" d="M99.17,319.46v148.2l-16.45-.38a33.925,33.925,0,0,1-33.7-33.93V353.39a33.925,33.925,0,0,1,22.09-31.8v-.01a33.954,33.954,0,0,1,11.84-2.12Z" data-name="&lt;Path&gt;"/></g></svg>