<svg xmlns="http://www.w3.org/2000/svg" width="36" height="36"><g transform="translate(0 -1016.362)"><path fill="#f05542" style="line-height:normal;text-indent:0;text-align:start;text-decoration-line:none;text-decoration-style:solid;text-decoration-color:#000;text-transform:none;block-progression:tb;isolation:auto;mix-blend-mode:normal" d="M24.941406 1016.3555a.50024207.50024207 0 0 0-.5.5l0 2.75c0 0-.0092 11.6984.0078 17.5507l.0039-.062c-.05332.4296.08884.8306.3125 1.0859.223662.2553.484214.3911.689453.5039.205239.1128.353837.2101.394531.2559.04069.046.04898-.01.0098.1367a.50024207.50024207 0 0 0-.01758.1289l0 11.9355a.50024207.50024207 0 0 0 .002.047c.03056.3304.173063.6356.396484.8301.223422.1945.484763.2708.71875.3047.467976.068.913896 0 1.146485.017l-.06445-.01c.610479.1223 1.18081-.2137 1.410156-.6485.229345-.4347.252218-.9185.183594-1.3515l.0078.078 0-11.5098c.481658-.1526.892344-.4355 1.107422-.8339.289474-.5363.362303-1.1551.287109-1.7188l.0039.066 0-10.6016a.50024207.50024207 0 1 0-1 0l0 10.6016a.50024207.50024207 0 0 0 .0039.066c.04904.3677-.01484.8132-.175781 1.1113-.160943.2982-.345846.4567-.728516.4571a.50024207.50024207 0 0 0-.5.5l0 11.8613a.50024207.50024207 0 0 0 .0078.078c.04007.2529-.0012.5753-.08203.7285-.08084.1533-.06667.1872-.328125.1348a.50024207.50024207 0 0 0-.06445-.01c-.415884-.029-.82512.026-1.072266-.01-.123572-.018-.184545-.051-.205078-.068-.01982-.017-.04152-.037-.05469-.1641l0-11.8945-.01758.1289c.105231-.3921-.009-.8161-.226563-1.0606-.217569-.2444-.463681-.3577-.662109-.4668-.198428-.109-.349865-.2074-.417969-.2851-.0681-.078-.09638-.1104-.07227-.3047a.50024207.50024207 0 0 0 .0039-.062c-.017-5.8473-.0078-17.5488-.0078-17.5488l0-2.2481 4.574219 0 0 .057c0 1.9422.0087 1.9306.02539 3.4121a.50101065.50101065 0 1 0 1.001953-.012c-.01673-1.4858-.02734-1.4615-.02734-3.4004l0-.5586a.50024207.50024207 0 0 0-.5-.5l-5.574219 0zm5.591797 5.9453a.50024207.50024207 0 0 0-.492187.5058l0 .9981a.50024207.50024207 0 1 0 1 0l0-.9981a.50024207.50024207 0 0 0-.507813-.5058zM15.457031 1016.3613a.50024207.50024207 0 0 0-.5.502l0 2.748c0 0-.0093 11.7004.0078 17.5528l.0039-.064c-.05332.4297.08884.8326.3125 1.0879.223662.2553.484214.3892.689453.502.205239.1127.353837.2101.394531.2558.04069.046.04702-.01.0078.1367a.50024207.50024207 0 0 0-.01563.1289l0 11.9356a.50024207.50024207 0 0 0 .002.047c.03056.3304.173063.6355.396484.83.223422.1946.484762.2708.71875.3047.467976.068.913896 0 1.146485.018l-.06445-.01c.610479.1223 1.18081-.2157 1.410156-.6504.229345-.4347.252217-.9185.183594-1.3516l.0078.078 0-11.5098c.481657-.1527.892344-.4336 1.107422-.832.289474-.5363.362304-1.1571.287109-1.7207l.0039.066 0-4.5508a.50024207.50024207 0 1 0-1 0l0 4.5508a.50024207.50024207 0 0 0 .0039.066c.04904.3676-.01484.8131-.175781 1.1113-.160943.2982-.345846.4567-.728516.457a.50024207.50024207 0 0 0-.5.5l0 11.8614a.50024207.50024207 0 0 0 .0059.08c.04007.2529.000763.5734-.08008.7266-.08084.1532-.06667.1872-.328125.1348a.50024207.50024207 0 0 0-.06445-.01c-.415884-.029-.825119.026-1.072265-.01-.123574-.018-.184546-.051-.205079-.068-.01982-.017-.04152-.036-.05469-.1621l0-11.8965-.01758.1289c.105231-.3921-.009-.8161-.226563-1.0605-.217569-.2444-.463681-.3578-.662109-.4668-.198428-.109-.349865-.2074-.417969-.2852-.0681-.078-.09638-.1103-.07226-.3046a.50024207.50024207 0 0 0 .0039-.062c-.01709-5.8473-.0078-17.5489-.0078-17.5489l0-2.248 4.574219 0 0 .057a.50024207.50024207 0 0 0 0 0c0 0 .0085 7.9594.02539 9.4609a.50024207.50024207 0 1 0 1-.01c-.0165-1.4653-.02539-9.4531-.02539-9.4531l0-.5566a.50024207.50024207 0 0 0-.5-.502l-5.574219 0zm5.591797 11.9961a.50024207.50024207 0 0 0-.492187.5078l0 .9981a.50024207.50024207 0 1 0 1 0l0-.9981a.50024207.50024207 0 0 0-.507813-.5078zM5.4589844 1016.4199a.50024207.50024207 0 0 0-.5.5l0 2.7481c0 0-.00919 11.7004.00781 17.5527l.00391-.065c-.053323.4297.088838.8326.3125 1.0879.2236618.2554.4842143.3892.6894531.502.2052389.1128.3557902.2101.3964844.2559.040694.046.047025-.01.00781.1367a.50024207.50024207 0 0 0-.017578.1289l0 11.9355a.50024207.50024207 0 0 0 .00195.047c.030563.3304.173063.6356.3964844.8301.2234214.1945.4847621.2708.71875.3047.4679758.068.9138957 0 1.1464844.017l-.064453-.01c.610479.1223 1.1808108-.2156 1.4101562-.6504.229345-.4347.254171-.9165.185547-1.3496l.0059.078 0-11.5118c.481657-.1526.892344-.4335 1.107422-.832.289474-.5363.362303-1.157.28711-1.7207l.0059.066 0-9.5547a.5009765.5009765 0 1 0-1.001953 0l0 9.5547a.50024207.50024207 0 0 0 .0059.066c.04904.3677-.01679.8151-.177734 1.1133-.160943.2982-.345846.4547-.7285159.4551a.50024207.50024207 0 0 0-.4980469.5l0 11.8633a.50024207.50024207 0 0 0 .00586.078c.040074.2529-.00119.5733-.082031.7265-.080841.1533-.066674.1891-.328125.1368a.50024207.50024207 0 0 0-.064453-.01c-.4158839-.029-.8251196.026-1.0722656-.01-.123573-.018-.184546-.051-.2050781-.068-.019817-.017-.041517-.036-.054687-.1621l0-11.8965-.017578.1308c.1052311-.3921-.00899-.818-.2265625-1.0625-.2175693-.2444-.4617285-.3577-.6601563-.4668-.1984277-.109-.351818-.2074-.4199219-.2851-.068104-.078-.096382-.1084-.072266-.3028a.50024207.50024207 0 0 0 .00391-.064c-.016993-5.8473-.00586-17.5488-.00586-17.5488l0-2.2481 4.5722655 0 0 .059c0 0 .0086 2.9681.02539 4.457a.50101065.50101065 0 1 0 1.001953-.012c-.01663-1.4774-.02734-4.4427-.02734-4.4453l0-.5586a.50024207.50024207 0 0 0-.5-.5l-5.5742186 0zm5.5937496 6.9903a.50024207.50024207 0 0 0-.49414.5078l0 .9961a.5009765.5009765 0 0 0 1.001953 0l0-.9961a.50024207.50024207 0 0 0-.507813-.5078z" color="#000" font-family="sans-serif" font-weight="400" overflow="visible"/><path fill="#2b4255" style="line-height:normal;text-indent:0;text-align:start;text-decoration-line:none;text-decoration-style:solid;text-decoration-color:#000;text-transform:none;block-progression:tb;isolation:auto;mix-blend-mode:normal" d="m 2.0117188,1016.3555 c -1.09928066,0 -2.00000005,0.9007 -2.00000005,2 l 0,2 0,1.998 0,2 0,1.9981 0,2 0,1.998 0,2 0,1.9981 0,2 0,1.5 a 0.50024207,0.50024207 0 1 0 1.00000005,0 l 0,-1.5 0,-2 0,-1.9981 0,-2 0,-1.998 0,-2 0,-1.9981 0,-2 0,-1.998 0,-2 c 0,-0.5622 0.43732,-0.9981 1,-0.9981 l 31.9980472,0 c 0.562692,0 1,0.4359 1,0.9981 l 0,31.9863 c 0,0.562 -0.437348,0.998 -1,0.998 l -31.9980472,0 c -0.5626399,0 -1,-0.436 -1,-0.998 l 0,-2 0,-5.4668 a 0.50024207,0.50024207 0 1 0 -1.00000005,0 l 0,5.4668 0,2 c 0,1.0992 0.90067927,1.998 2.00000005,1.998 l 31.9980472,0 c 1.099327,0 2.001953,-0.8988 2.001953,-1.998 l 0,-31.9863 c 0,-1.0993 -0.902666,-2 -2.001953,-2 l -31.9980472,0 z" color="#000" font-family="sans-serif" font-weight="400" overflow="visible"/><path fill="#2b4255" style="line-height:normal;text-indent:0;text-align:start;text-decoration-line:none;text-decoration-style:solid;text-decoration-color:#000;text-transform:none;block-progression:tb;isolation:auto;mix-blend-mode:normal" d="m 0.50390625,1039.332 a 0.50024207,0.50024207 0 0 0 -0.4921875,0.5059 l 0,1 a 0.50024207,0.50024207 0 1 0 1.00000005,0 l 0,-1 a 0.50024207,0.50024207 0 0 0 -0.50781255,-0.5059 z" color="#000" font-family="sans-serif" font-weight="400" overflow="visible"/></g></svg>