<svg xmlns="http://www.w3.org/2000/svg" data-name="Layer 1" viewBox="0 0 24 24"><path fill="#fff" stroke="#000" stroke-miterlimit="10" d="M19.39,17.78,9,21a.91.91,0,0,1-1.13-.57l-4-12.17a.86.86,0,0,1,.59-1.09L14.89,3.94A.91.91,0,0,1,16,4.51L20,16.68A.87.87,0,0,1,19.39,17.78Z"/><rect width="12.67" height="14.51" x="7.43" y="3" fill="#fff" stroke="#000" stroke-miterlimit="10" rx="1"/><path fill="#80cfff" d="M19.65,17.07l-3-4.71a.46.46,0,0,0-.76,0l-1.8,2.54a.47.47,0,0,1-.71,0l-1.76-1.87a.47.47,0,0,0-.7,0l-3,4Z"/><ellipse cx="10.83" cy="9.37" fill="#80cfff" rx="1.13" ry="1.1"/></svg>