<svg xmlns="http://www.w3.org/2000/svg" xmlns:xlink="http://www.w3.org/1999/xlink" width="16" height="16" viewBox="0 0 16 16"><defs><linearGradient id="c" x1="-935.994" x2="-921.994" y1="970.858" y2="970.858" gradientTransform="translate(936.994 73.504)" gradientUnits="userSpaceOnUse" xlink:href="#a"/><linearGradient id="a"><stop offset="0" stop-color="#f3f3f3"/><stop offset="1" stop-color="#dadedf"/></linearGradient><linearGradient id="d" x1="-688.008" x2="-678.993" y1="-128.511" y2="-128.511" gradientTransform="translate(691.5 1172.873)" gradientUnits="userSpaceOnUse" xlink:href="#b"/><linearGradient id="b"><stop offset="0" stop-color="#8ccc44"/><stop offset="1" stop-color="#5cb450"/></linearGradient></defs><g transform="translate(0 -1036.362)"><circle cx="8" cy="1044.362" style="marker:none" r="7" fill="url(#c)" color="#000" enable-background="accumulate" overflow="visible"/><path style="line-height:normal;text-indent:0;text-align:start;text-decoration-line:none;text-decoration-style:solid;text-decoration-color:#000;text-transform:none;block-progression:tb;white-space:normal;isolation:auto;mix-blend-mode:normal;solid-color:#000;solid-opacity:1" fill="url(#d)" fill-rule="evenodd" d="m 7.97684,1039.8559 a 1.0001,1.0001 0 0 0 -0.98242,1.0156 l 0.004,2.4922 -2.49414,0 a 1.0001,1.0001 0 1 0 0.004,2 l 2.49414,-0 0.004,2.4942 a 1.0001,1.0001 0 1 0 2,-0.01 l -0.004,-2.4903 2.49219,-0 a 1.0001,1.0001 0 1 0 -0.002,-2 l -2.49414,0 -0.004,-2.4941 a 1.0001,1.0001 0 0 0 -1.01758,-1.0117 z" color="#000" enable-background="accumulate" font-family="sans-serif" font-weight="400" overflow="visible"/></g></svg>