<svg xmlns="http://www.w3.org/2000/svg" viewBox="0 0 48 48"><linearGradient id="a" x1="935.145" x2="947.358" y1="-206.199" y2="-221.288" gradientTransform="matrix(3.0757 0 0 -3.0757 -2870.874 -633.24)" gradientUnits="userSpaceOnUse"><stop offset="0" stop-color="#FCD600"/><stop offset="1" stop-color="#F16222"/></linearGradient><path fill="url(#a)" d="M10.144 0h27.712C43.458 0 48 4.542 48 10.144v27.712C48 43.458 43.458 48 37.856 48H10.144C4.542 48 0 43.458 0 37.856V10.144C0 4.542 4.542 0 10.144 0z"/><path fill="#fff" d="M16 39a2.503 2.503 0 0 1-2.5-2.5c0-.348.074-.688.213-1H9.5A.5.5 0 0 1 9 35v-5.189a.5.5 0 0 1 .876-.329c.293.333.692.518 1.124.518.827 0 1.5-.673 1.5-1.5S11.827 27 11 27c-.432 0-.831.185-1.124.519a.505.505 0 0 1-.552.139.502.502 0 0 1-.324-.469V22a.5.5 0 0 1 .5-.5h13a.5.5 0 0 1 .5.5v13a.5.5 0 0 1-.5.5h-4.213c.139.313.213.652.213 1 0 1.379-1.122 2.5-2.5 2.5zm-6-4.5h4.69a.5.5 0 0 1 .328.877c-.33.287-.519.697-.519 1.123 0 .827.673 1.5 1.5 1.5s1.5-.673 1.5-1.5c0-.426-.189-.836-.519-1.123a.498.498 0 1 1 .328-.877H22v-12H10v3.713A2.463 2.463 0 0 1 11 26c1.378 0 2.5 1.121 2.5 2.5S12.378 31 11 31c-.347 0-.687-.074-1-.213V34.5z"/><path fill="#fff" d="M26 23h-3.5a.5.5 0 0 1-.5-.5h-9a.5.5 0 0 1-.5-.5v-3.713a2.463 2.463 0 0 1-1 .213C10.122 18.5 9 17.378 9 16s1.122-2.5 2.5-2.5c.347 0 .687.074 1 .213V9.5A.5.5 0 0 1 13 9h5.19a.5.5 0 0 1 .329.876A1.481 1.481 0 0 0 18 11c0 .827.673 1.5 1.5 1.5S21 11.827 21 11c0-.432-.185-.831-.519-1.124A.5.5 0 0 1 20.81 9H26a.5.5 0 0 1 .5.5v13a.5.5 0 0 1-.5.5zm-3-1h2.5V10h-3.713c.139.313.213.653.213 1 0 1.378-1.122 2.5-2.5 2.5S17 12.378 17 11c0-.347.074-.687.213-1H13.5v4.69a.5.5 0 0 1-.876.329A1.481 1.481 0 0 0 11.5 14.5c-.827 0-1.5.673-1.5 1.5s.673 1.5 1.5 1.5c.432 0 .831-.185 1.124-.519a.5.5 0 0 1 .876.329v4.19h9a.5.5 0 0 1 .5.5z"/><path fill="#fff" d="M38.5 26.5h-13a.5.5 0 0 1-.5-.5v-3.5a.5.5 0 0 1 .5-.5v-9a.5.5 0 0 1 .5-.5h3.713a2.463 2.463 0 0 1-.213-1c0-1.378 1.122-2.5 2.5-2.5s2.5 1.122 2.5 2.5c0 .347-.074.687-.213 1H38.5a.5.5 0 0 1 .5.5v5.19a.5.5 0 0 1-.876.329A1.481 1.481 0 0 0 37 18c-.827 0-1.5.673-1.5 1.5S36.173 21 37 21c.432 0 .831-.185 1.124-.519a.5.5 0 0 1 .876.329V26a.5.5 0 0 1-.5.5zm-12.5-1h12v-3.713A2.463 2.463 0 0 1 37 22c-1.378 0-2.5-1.122-2.5-2.5S35.622 17 37 17c.347 0 .687.074 1 .213V13.5h-4.69a.5.5 0 0 1-.329-.876c.334-.292.519-.691.519-1.124 0-.827-.673-1.5-1.5-1.5s-1.5.673-1.5 1.5c0 .432.185.831.519 1.124a.5.5 0 0 1-.329.876H26.5v9a.5.5 0 0 1-.5.5v2.5z"/><path fill="#fff" d="M35 39h-5.19a.5.5 0 0 1-.328-.877c.329-.287.518-.697.518-1.123 0-.827-.673-1.5-1.5-1.5S27 36.173 27 37c0 .426.189.836.519 1.123a.5.5 0 1 1-.329.877H22a.5.5 0 0 1-.5-.5V35a.5.5 0 0 1 .5-.5v-9a.5.5 0 0 1 .5-.5h3a.5.5 0 0 1 .5.5h9a.5.5 0 0 1 .5.5v3.713a2.463 2.463 0 0 1 1-.213c1.378 0 2.5 1.121 2.5 2.5s-1.122 2.5-2.5 2.5c-.347 0-.687-.074-1-.213V38.5a.5.5 0 0 1-.5.5zm-4.213-1H34.5v-4.689a.5.5 0 0 1 .876-.329 1.48 1.48 0 0 0 1.124.519c.827 0 1.5-.673 1.5-1.5s-.673-1.5-1.5-1.5c-.432 0-.831.185-1.124.519a.5.5 0 0 1-.876-.329V26.5h-9a.5.5 0 0 1-.5-.5h-2v9a.5.5 0 0 1-.5.5V38h3.713A2.456 2.456 0 0 1 26 37c0-1.379 1.122-2.5 2.5-2.5S31 35.621 31 37c0 .348-.074.688-.213 1z"/></svg>