<svg xmlns="http://www.w3.org/2000/svg" width="400" height="400" enable-background="new 0 0 400 400" viewBox="0 0 400 400"><circle cx="200" cy="200" r="164.108" fill="#FFBE55"/><path fill="#0B4870" d="M200,320.595c-49.883,0-88.989-27.763-104.608-74.265c-2.017-6.004,1.216-12.506,7.22-14.522
					c6.003-2.018,12.507,1.215,14.523,7.22c5.921,17.628,25.848,58.63,82.864,58.63c21.612,0,40.096-5.911,54.937-17.571
					c12.864-10.105,22.506-24.259,27.884-40.929c1.945-6.028,8.406-9.338,14.437-7.393c6.028,1.945,9.338,8.408,7.393,14.437
					c-6.786,21.031-19.077,38.985-35.543,51.923C250.127,313.034,226.876,320.595,200,320.595z"/><circle cx="129.757" cy="154.616" r="19.892" fill="#0B4870"/><circle cx="270.243" cy="154.616" r="19.892" fill="#0B4870"/></svg>